<svg xmlns="http://www.w3.org/2000/svg" xmlns:osb="http://www.openswatchbook.org/uri/2009/osb" xmlns:svg="http://www.w3.org/2000/svg" xmlns:xlink="http://www.w3.org/1999/xlink" id="svg885" width="200" height="100" version="1.1" viewBox="0 0 500 250"><title id="title152">OrbTk Avatar</title><metadata id="metadata891"/><defs id="defs889"><rect id="rect9344" width="507.672" height="256.766" x="80.137" y="40.068"/><linearGradient id="linearGradient961" osb:paint="solid"><stop style="stop-color:red;stop-opacity:1" id="stop959" offset="0"/></linearGradient><linearGradient id="linearGradient963" x1="-73.152" x2="-30.264" y1="-96.36" y2="-96.36" gradientTransform="matrix(0.69761164,0,0,0.6753699,-10.321254,-33.495657)" gradientUnits="userSpaceOnUse" xlink:href="#linearGradient961"/><filter style="color-interpolation-filters:sRGB" id="filter4911" width="1.13" height="1.12" x="-.065" y="-.06"><feGaussianBlur id="feGaussianBlur4913" stdDeviation="3.762"/></filter><filter style="color-interpolation-filters:sRGB" id="filter6715" width="1.181" height="1.119" x="-.091" y="-.06"><feGaussianBlur id="feGaussianBlur6717" stdDeviation="3.173"/></filter><filter style="color-interpolation-filters:sRGB" id="filter6775" width="1.093" height="1.315" x="-.047" y="-.158"><feGaussianBlur id="feGaussianBlur6777" stdDeviation="9.2"/></filter><filter style="color-interpolation-filters:sRGB" id="filter7185" width="1.144" height="1.144" x="-.072" y="-.072"><feGaussianBlur id="feGaussianBlur7187" stdDeviation="3.212"/></filter><filter style="color-interpolation-filters:sRGB" id="filter7189" width="1.189" height="1.116" x="-.094" y="-.058"><feGaussianBlur id="feGaussianBlur7191" stdDeviation="2.701"/></filter><filter style="color-interpolation-filters:sRGB" id="filter7225" width="1.233" height="1.104" x="-.116" y="-.052"><feGaussianBlur id="feGaussianBlur7227" stdDeviation="1.949"/></filter></defs><g id="layer3" transform="translate(-80.136596,-40.068302)" style="display:inline;opacity:1"><rect style="opacity:1;vector-effect:none;fill:#3b434a;fill-opacity:1;fill-rule:evenodd;stroke:#000;stroke-width:0;stroke-linecap:butt;stroke-linejoin:miter;stroke-miterlimit:4;stroke-dasharray:none;stroke-dashoffset:0;stroke-opacity:1" id="rect897" width="500.424" height="250.155" x="80.137" y="40.068"/></g><g id="layer1" transform="translate(-80.136596,-40.068302)" style="display:inline"><text style="font-style:normal;font-variant:normal;font-weight:400;font-stretch:normal;font-size:43.3333px;line-height:125%;font-family:mdl2;-inkscape-font-specification:'mdl2, Normal';font-variant-ligatures:normal;font-variant-caps:normal;font-variant-numeric:normal;font-variant-east-asian:normal;text-align:start;letter-spacing:3.75px;word-spacing:-3.675px;writing-mode:lr-tb;text-anchor:start;display:inline;fill:#64829e;fill-opacity:1;stroke:#fff;stroke-width:0;stroke-linecap:butt;stroke-linejoin:miter;stroke-miterlimit:4;stroke-dasharray:none;stroke-opacity:1" id="text6783" x="93.438" y="249.44" xml:space="preserve"><tspan id="tspan6781" x="93.438" y="249.44" style="font-style:normal;font-variant:normal;font-weight:500;font-stretch:normal;font-size:43.3333px;font-family:BabelSans;-inkscape-font-specification:'BabelSans Medium';font-variant-ligatures:normal;font-variant-caps:normal;font-variant-numeric:normal;font-variant-east-asian:normal;text-align:start;letter-spacing:10px;text-anchor:start;fill:#64829e;fill-opacity:1;stroke:#fff;stroke-width:0;stroke-miterlimit:4;stroke-dasharray:none;stroke-opacity:1">The Rust UI-Toolkit</tspan></text></g><g id="layer6" style="display:none;filter:url(#filter6775)"><g id="g3983" transform="matrix(0.99955067,0,0,1.0003964,-14.978928,-0.03487828)" style="display:inline;opacity:1;stroke-width:1.00003;filter:url(#filter4911)"><path id="path3981" d="m 98.276055,26.46789 c -0.27345,-7.8e-5 -0.54689,0.0015 -0.82032,0.0049 -6.117739,0.06162 -12.196921,0.977028 -18.061521,2.719728 -28.176593,8.371285 -44.885808,29.679977 -44.522183,59.071585 0,0 1.25605,4.61206 6.203425,4.784972 3.3057,0.11555 5.820325,-5.061495 5.820325,-5.061495 -0.355675,-22.292325 12.58402,-37.276192 33.904683,-44.63979 27.020956,-9.33073 57.866156,8.081615 67.759456,34.596013 l -0.2448,-0.679995 12.80273,-3.808595 C 152.84124,45.63669 127.29959,26.539 98.276055,26.46789 Z m 50.039055,50.7959 v -7e-6 0 z m 0,-7e-6 v 7e-6 c 8.1204,27.09621 -7.21682,56.26061 -34.53368,64.71507 -4.7708,1.59357 -8.01711,2.58827 -11.90293,3.7105 -2.072425,0.59851 -4.399055,1.09662 -4.743355,5.15025 -1.644656,11.52681 13.238245,6.74671 19.651645,4.38804 34.79711,-10.30916 54.6256,-46.97102 44.33105,-81.772462 z" style="display:inline;opacity:1;fill:#fff;fill-opacity:1;fill-rule:evenodd;stroke:#fff;stroke-width:0;stroke-linecap:butt;stroke-linejoin:miter;stroke-miterlimit:4;stroke-dasharray:none;stroke-opacity:1"/><path style="display:inline;opacity:1;fill:#fff;fill-opacity:1;stroke:#fff;stroke-width:0;stroke-linejoin:round;stroke-miterlimit:4;stroke-dasharray:none;stroke-opacity:1;paint-order:markers fill stroke" id="path3979" d="M 83.733751,70.824684 109.10775,45.615477 c 0.33962,-0.560059 1.50517,0.24588 1.18284,0.927434 L 84.880794,71.751142 c -0.982382,0.596629 -1.451024,-0.0024 -1.147043,-0.926458 z" transform="matrix(5.210995,0,0,5.2741755,-406.14137,-221.23192)"/></g><text style="font-style:normal;font-variant:normal;font-weight:400;font-stretch:normal;font-size:171.976px;line-height:125%;font-family:NearJanTschich;-inkscape-font-specification:'NearJanTschich, Normal';font-variant-ligatures:normal;font-variant-caps:normal;font-variant-numeric:normal;font-variant-east-asian:normal;letter-spacing:0;word-spacing:0;writing-mode:lr-tb;display:inline;fill:#fff;fill-opacity:1;stroke:#fff;stroke-width:2;stroke-linecap:butt;stroke-linejoin:miter;stroke-miterlimit:4;stroke-dasharray:none;stroke-opacity:1;filter:url(#filter6715)" id="text6685" x="259.263" y="174.25" transform="matrix(0.94894326,0,0,1.0538038,-23.61224,-25.62733)" xml:space="preserve"><tspan id="tspan6683" x="259.263" y="174.25" style="stroke:#fff;stroke-width:2;stroke-miterlimit:4;stroke-dasharray:none;stroke-opacity:1">b</tspan></text><text style="font-style:normal;font-variant:normal;font-weight:400;font-stretch:normal;font-size:217.156px;line-height:125%;font-family:NearJanTschich;-inkscape-font-specification:'NearJanTschich, Normal';font-variant-ligatures:normal;font-variant-caps:normal;font-variant-numeric:normal;font-variant-east-asian:normal;letter-spacing:0;word-spacing:0;writing-mode:lr-tb;display:inline;fill:#fff;fill-opacity:1;stroke:#000;stroke-width:0;stroke-linecap:butt;stroke-linejoin:miter;stroke-miterlimit:4;stroke-dasharray:none;stroke-opacity:1;filter:url(#filter7185)" id="text6721" x="401.889" y="127.237" transform="scale(0.81120133,1.2327396)" xml:space="preserve"><tspan id="tspan6719" x="401.889" y="127.237" style="stroke-width:0">T</tspan></text><text style="font-style:normal;font-variant:normal;font-weight:400;font-stretch:normal;font-size:225.889px;line-height:125%;font-family:NearJanTschich;-inkscape-font-specification:'NearJanTschich, Normal';font-variant-ligatures:normal;font-variant-caps:normal;font-variant-numeric:normal;font-variant-east-asian:normal;letter-spacing:0;word-spacing:0;writing-mode:lr-tb;display:inline;fill:#fff;fill-opacity:1;stroke:#000;stroke-width:0;stroke-linecap:butt;stroke-linejoin:miter;stroke-miterlimit:4;stroke-dasharray:none;stroke-opacity:1;filter:url(#filter7189)" id="text6749" x="411.764" y="156.776" transform="scale(0.99952932,1.0004709)" xml:space="preserve"><tspan id="tspan6747" x="411.764" y="156.776" style="stroke-width:0">K</tspan></text><text style="font-style:normal;font-variant:normal;font-weight:400;font-stretch:normal;font-size:182.017px;line-height:125%;font-family:NearJanTschich;-inkscape-font-specification:'NearJanTschich, Normal';font-variant-ligatures:normal;font-variant-caps:normal;font-variant-numeric:normal;font-variant-east-asian:normal;letter-spacing:0;word-spacing:0;writing-mode:lr-tb;display:inline;fill:#fff;fill-opacity:1;stroke:#000;stroke-width:0;stroke-linecap:butt;stroke-linejoin:miter;stroke-miterlimit:4;stroke-dasharray:none;stroke-opacity:1;filter:url(#filter7225)" id="text7199" x="150.794" y="167.111" transform="scale(1.0621615,0.94147641)" xml:space="preserve"><tspan id="tspan7197" x="150.794" y="167.111" style="stroke-width:0">r</tspan></text></g><g id="layer4" style="display:inline;opacity:1"><g id="g884" style="fill:#64829e;fill-opacity:1"><text style="font-style:normal;font-variant:normal;font-weight:400;font-stretch:normal;font-size:217.156px;line-height:125%;font-family:NearJanTschich;-inkscape-font-specification:'NearJanTschich, Normal';font-variant-ligatures:normal;font-variant-caps:normal;font-variant-numeric:normal;font-variant-east-asian:normal;letter-spacing:0;word-spacing:0;writing-mode:lr-tb;display:inline;fill:#64829e;fill-opacity:1;stroke:#000;stroke-width:0;stroke-linecap:butt;stroke-linejoin:miter;stroke-miterlimit:4;stroke-dasharray:none;stroke-opacity:1" id="text847" x="401.889" y="127.237" transform="scale(0.81120133,1.2327396)" xml:space="preserve"><tspan id="tspan845" x="401.889" y="127.237" style="fill:#64829e;fill-opacity:1;stroke-width:0">T</tspan></text><text style="font-style:normal;font-variant:normal;font-weight:400;font-stretch:normal;font-size:225.889px;line-height:125%;font-family:NearJanTschich;-inkscape-font-specification:'NearJanTschich, Normal';font-variant-ligatures:normal;font-variant-caps:normal;font-variant-numeric:normal;font-variant-east-asian:normal;letter-spacing:0;word-spacing:0;writing-mode:lr-tb;display:inline;fill:#64829e;fill-opacity:1;stroke:#000;stroke-width:0;stroke-linecap:butt;stroke-linejoin:miter;stroke-miterlimit:4;stroke-dasharray:none;stroke-opacity:1" id="text851" x="411.837" y="156.984" transform="scale(0.99952932,1.0004709)" xml:space="preserve"><tspan id="tspan849" x="411.837" y="156.984" style="fill:#64829e;fill-opacity:1;stroke-width:0">K</tspan></text><text style="font-style:normal;font-variant:normal;font-weight:400;font-stretch:normal;font-size:171.976px;line-height:125%;font-family:NearJanTschich;-inkscape-font-specification:'NearJanTschich, Normal';font-variant-ligatures:normal;font-variant-caps:normal;font-variant-numeric:normal;font-variant-east-asian:normal;letter-spacing:0;word-spacing:0;writing-mode:lr-tb;display:inline;fill:#64829e;fill-opacity:1;stroke:#000;stroke-width:0;stroke-linecap:butt;stroke-linejoin:miter;stroke-miterlimit:4;stroke-dasharray:none;stroke-opacity:1" id="text855" x="234.06" y="149.252" transform="scale(0.94894327,1.0538038)" xml:space="preserve"><tspan id="tspan853" x="234.06" y="149.252" style="fill:#64829e;fill-opacity:1;stroke-width:0">b</tspan></text><text style="font-style:normal;font-variant:normal;font-weight:400;font-stretch:normal;font-size:182.017px;line-height:125%;font-family:NearJanTschich;-inkscape-font-specification:'NearJanTschich, Normal';font-variant-ligatures:normal;font-variant-caps:normal;font-variant-numeric:normal;font-variant-east-asian:normal;letter-spacing:0;word-spacing:0;writing-mode:lr-tb;display:inline;fill:#64829e;fill-opacity:1;stroke:#000;stroke-width:0;stroke-linecap:butt;stroke-linejoin:miter;stroke-miterlimit:4;stroke-dasharray:none;stroke-opacity:1" id="text863" x="150.794" y="167.111" transform="scale(1.0621615,0.9414764)" xml:space="preserve"><tspan id="tspan861" x="150.794" y="167.111" style="fill:#64829e;fill-opacity:1;stroke-width:0">r</tspan></text></g><g id="g1128" transform="translate(-15)" style="display:inline;opacity:1"><path id="path267" d="m 98.276055,26.46789 c -0.27345,-7.8e-5 -0.54689,0.0015 -0.82032,0.0049 -6.117739,0.06162 -12.196921,0.977028 -18.061521,2.719728 -28.176593,8.371285 -44.885808,29.679977 -44.522183,59.071585 0,0 1.25605,4.61206 6.203425,4.784972 3.3057,0.11555 5.820325,-5.061495 5.820325,-5.061495 -0.355675,-22.292325 12.58402,-37.276192 33.904683,-44.63979 27.020956,-9.33073 57.866156,8.081615 67.759456,34.596013 l -0.2448,-0.679995 12.80273,-3.808595 C 152.84124,45.63669 127.29959,26.539 98.276055,26.46789 Z m 50.039055,50.7959 v -7e-6 0 z m 0,-7e-6 v 7e-6 c 8.1204,27.09621 -7.21682,56.26061 -34.53368,64.71507 -4.7708,1.59357 -8.01711,2.58827 -11.90293,3.7105 -2.072425,0.59851 -4.399055,1.09662 -4.743355,5.15025 -1.644656,11.52681 13.238245,6.74671 19.651645,4.38804 34.79711,-10.30916 54.6256,-46.97102 44.33105,-81.772462 z" style="display:inline;fill:#f5e11a;fill-opacity:1;fill-rule:evenodd;stroke:#000;stroke-width:0;stroke-linecap:butt;stroke-linejoin:miter;stroke-miterlimit:4;stroke-dasharray:none;stroke-opacity:1"/><path style="display:inline;fill:#f5e11a;fill-opacity:1;stroke:#d1b4a3;stroke-width:0;stroke-linejoin:round;stroke-miterlimit:4;stroke-dasharray:none;stroke-opacity:.992157;paint-order:markers fill stroke" id="path888" d="M 30.194788,152.30989 162.41857,19.352111 c 1.76976,-2.953849 7.84343,1.296814 6.16377,4.89145 L 36.172023,157.1962 c -5.119188,3.14672 -7.561279,-0.0127 -5.977235,-4.88631 z"/></g></g></svg>